<?xml version="1.0" encoding="UTF-8"?>
<svg xmlns="http://www.w3.org/2000/svg" id="Calque_2" data-name="Calque 2" viewBox="0 0 180.62 130.18">
  <defs>
    <style>
      .cls-1 {
        fill: #009abf;
      }

      .cls-1, .cls-2, .cls-3, .cls-4, .cls-5, .cls-6 {
        stroke-width: 0px;
      }

      .cls-2 {
        fill: #71a850;
      }

      .cls-3 {
        fill: #f5a800;
      }

      .cls-4 {
        fill: #003da6;
      }

      .cls-7 {
        fill: none;
        stroke: #00afaa;
        stroke-linecap: round;
        stroke-miterlimit: 10;
        stroke-width: 3px;
      }

      .cls-5 {
        fill: #7b868c;
      }

      .cls-6 {
        fill: #00afaa;
      }
    </style>
  </defs>
  <g id="Calque_1-2" data-name="Calque 1">
    <path class="cls-3" d="M71.19,122.6h24.25c.72,0,1.31.59,1.31,1.31v3.76c0,.72-.58,1.3-1.3,1.3h-24.26c-.72,0-1.3-.58-1.3-1.3v-3.76c0-.72.59-1.31,1.31-1.31Z"></path>
    <rect class="cls-5" x="125.25" y="25.68" width="2.05" height="16.2"></rect>
    <path class="cls-5" d="M56.86,25.68c-.07.3-.09.66-.09.95,0,.32.02.63.09.98h3.73v14.27h2.06v-14.27h3.7c.08-.34.12-.66.12-.98,0-.29-.04-.65-.12-.95h-9.49Z"></path>
    <polygon class="cls-5" points="97.91 38.15 90.91 25.68 88.82 25.68 88.82 41.88 90.87 41.88 90.87 29.44 97.86 41.88 99.97 41.88 99.97 25.68 97.91 25.68 97.91 38.15"></polygon>
    <path class="cls-5" d="M142.7,34.12c1.71-.98,2.13-2.34,2.13-3.98,0-1.97-1.22-4.45-4.46-4.45h-5.81v16.2h2.03v-6.69h3.26c1.95,0,3.11.8,3.11,2.8v3.89h2.07v-3.99c0-1.58-.56-3.01-2.33-3.77ZM139.83,33.31h-3.24v-5.82h3.24c1.97,0,3.01,1.13,3.01,2.92s-1.02,2.9-3.01,2.9Z"></path>
    <path class="cls-5" d="M48.13,34.12c1.71-.98,2.13-2.34,2.13-3.98,0-1.97-1.22-4.45-4.46-4.45h-5.81v16.2h2.03v-6.69h3.26c1.95,0,3.11.8,3.11,2.8v3.89h2.07v-3.99c0-1.58-.56-3.01-2.33-3.77ZM45.26,33.31h-3.24v-5.82h3.24c1.97,0,3.01,1.13,3.01,2.92s-1.02,2.9-3.01,2.9Z"></path>
    <path class="cls-5" d="M12.3,35.19c3.46,0,5.07-2.02,5.07-4.79,0-1.99-.89-4.72-4.55-4.72h-5.81v16.2h2.03v-6.69h3.26ZM12.29,33.31h-3.24v-5.82h3.24c1.97,0,3.01,1.13,3.01,2.92s-1.02,2.9-3.01,2.9Z"></path>
    <path class="cls-5" d="M112.47,25.59c-.4,0-.79.03-1.16.14l-5.48,16.15h2.1l1.75-5.21h5.64l1.8,5.21h2.07l-5.5-16.15c-.38-.07-.78-.14-1.21-.14ZM110.29,34.74l2.18-6.59,2.23,6.59h-4.41Z"></path>
    <path class="cls-5" d="M27.26,25.59c-.4,0-.79.03-1.16.14l-5.48,16.15h2.1l1.75-5.21h5.64l1.8,5.21h2.07l-5.5-16.15c-.38-.07-.78-.14-1.21-.14ZM25.09,34.74l2.18-6.59,2.23,6.59h-4.41Z"></path>
    <path class="cls-5" d="M154.06,39.96v-5.75h6.04c.07-.3.12-.62.12-.93s-.06-.65-.12-.97h-6.04v-4.7h6.92c.07-.34.08-.61.08-.9,0-.35,0-.67-.08-1.03h-8.95v16.2h9.2c.06-.34.12-.65.12-.96,0-.34-.06-.61-.12-.96h-7.18Z"></path>
    <path class="cls-5" d="M75.02,39.96v-5.75h6.04c.07-.3.12-.62.12-.93s-.06-.65-.12-.97h-6.04v-4.7h6.92c.07-.34.08-.61.08-.9,0-.35,0-.67-.08-1.03h-8.95v16.2h9.2c.06-.34.12-.65.12-.96,0-.34-.06-.61-.12-.96h-7.18Z"></path>
    <path class="cls-2" d="M130.42,64.44v22.28c1.99-1.65,5.16-2.19,10.12-2.52v-10.05s7.91,0,7.91,0c4.17-.19,13.43-1.44,13.43-9.72h-31.47Z"></path>
    <path class="cls-2" d="M156.48,83.95h-2.1c-5.94.14-23.01,1.61-23.96,14.56v11.22h3.4c6.07-.13,6.72-6.35,6.72-9.05v-7.66h3.91c7.98,0,12.03-2.35,12.03-6.97,0-.59,0-2.1,0-2.1Z"></path>
    <path class="cls-6" d="M108.23,64.46h-22.08s0,45.28,0,45.28c7.7-.95,10.51-4.6,10.92-9.99v-25.59h9.7c.32.02.77.04,1.03.06,4.6.55,7.54,2.57,7.84,11.86.04.52,0,1.14,0,1.61-.24,15.04-11.69,19.65-18.02,21.33h-.03c-.08.04-.13.08-.13.16v.41c0,.08.06.14.13.15h0s.01,0,.02,0h.74c9.23,0,27.82-2.24,27.82-22.54v-.37c-.1-17.59-7.7-22.37-17.93-22.37Z"></path>
    <path class="cls-1" d="M61.68,74.16l5.22.04c.28.02.54,0,.75,0,1.65,0,4.54.86,4.66,4.12v10.61c.1-.02.21-.06.32-.08.4-.1.83-.23,1.25-.45,0,0,.06-.04.06-.04.06-.04.12-.07.18-.11.04-.02.04-.02.08-.04,0,0,.06-.04.07-.04,3.71-2.15,6.39-5.22,6.38-10.61,0-.72-.05-1.42-.15-2.09-.07-.51-.16-1.01-.29-1.5-.87-3.46-3.04-6.16-6.25-7.66-.58-.28-1.12-.51-1.65-.71-2.21-.87-4.28-1.17-9.27-1.17h-14.92c-.05,0-.03.11-.03.11.31.57.64,1.11.98,1.63,1.5,2.58,5.17,7.47,11.6,7.94.32.02.65.04.99.04Z"></path>
    <path class="cls-1" d="M82.59,109.63s-1.01-1.4-2.29-3.61c-1.27-2.21-7.92-13.72-9.14-15.86-1.03-1.81-2.68-2.62-4.36-3.11,0,0,0,0-.01,0-1.19-.33-2.51-.46-3.5-.51-.12,0-.24,0-.36-.01-.16,0-.32,0-.45-.01-.12,0-.22.01-.34.01h-6.33c-2.52.09-2.76,2.42-2.79,2.87v6.84h9.45c1.1,1.63,2.2,3.24,3.16,4.63,1.06,1.54,2.07,2.98,2.5,3.53.43.56,1.85,3.08,7.84,4.56,2.41.59,5.11.69,6.12.77l.56.02-.06-.1Z"></path>
    <path class="cls-4" d="M44.42,86.52h-1.23s-7.8,0-7.8,0v7.63h0c0,1.65.22,3.85,1.25,5.14.82,1.03,1.05,1.17,1.1,1.18l-5.91.02c-1.35,0-2.56-.06-3.66-.17-3.39-.35-5.62-1.22-7.08-2.57-1.8-1.65-2.44-4.01-2.65-6.97v-3.83s0-12.79,0-12.79h27.22s0-.01,0-.02c-1.45-3.56-4.35-5.81-6.55-7.09-.82-.48-1.48-.76-2.06-1-2.49-1.03-5.81-1.7-8.87-1.7-3.46,0-7.75.75-11.53,2.92-2.75,1.57-3.42,2.17-5.14,3.8-9.3,8.84-9.21,23.12.02,32.04,5.42,5.25,11.8,6.71,16.44,6.71,5.64,0,11.68-1.79,16.82-6.7.29-.27,1.04-1.07,1.49-1.59.32-.36.62-.75.9-1.13v-11.09c-.04-.56-.35-2.7-2.75-2.81Z"></path>
    <path class="cls-7" d="M1.5,1.5h150.11c16.85,0,27.52,7.35,27.52,20.43v106.75"></path>
  </g>
</svg>
