<?xml version="1.0" encoding="UTF-8"?>
<svg xmlns="http://www.w3.org/2000/svg" id="Calque_2" data-name="Calque 2" viewBox="0 0 409.05 106.31">
  <defs>
    <style>
      .cls-1 {
        fill: #fff;
      }

      .cls-1, .cls-2, .cls-3 {
        fill-rule: evenodd;
        stroke-width: 0px;
      }

      .cls-2 {
        fill: #1d1d1b;
      }

      .cls-3 {
        fill: #e30613;
      }
    </style>
  </defs>
  <g id="Calque_1-2" data-name="Calque 1">
    <g>
      <polygon class="cls-2" points="0 13.1 .02 12.37 .07 11.62 .16 10.9 .29 10.19 .45 9.51 .65 8.84 .88 8.2 1.14 7.58 1.44 6.99 1.76 6.42 2.11 5.88 2.49 5.37 2.9 4.89 3.32 4.43 3.77 4.01 4.24 3.61 4.72 3.24 5.22 2.9 5.73 2.59 6.25 2.3 6.78 2.04 7.32 1.81 7.87 1.6 8.42 1.42 8.98 1.26 9.54 1.12 10.11 1 10.67 .91 11.24 .84 11.81 .79 12.38 .76 12.95 .75 13.51 .76 14.07 .79 14.63 .85 15.18 .92 15.74 1.02 16.29 1.14 16.84 1.29 17.39 1.46 17.92 1.65 18.45 1.86 18.98 2.1 19.49 2.37 20 2.66 20.49 2.97 20.97 3.32 21.44 3.69 21.89 4.08 22.31 4.5 22.73 4.95 23.11 5.43 23.48 5.93 23.82 6.46 24.13 7.01 24.41 7.59 24.67 8.19 24.89 8.81 25.08 9.45 25.24 10.12 25.36 10.8 25.45 11.5 25.5 12.21 25.52 12.92 25.52 40.49 40.3 40.49 40.3 13.11 40.32 12.38 40.37 11.64 40.45 10.92 40.57 10.22 40.72 9.55 40.9 8.89 41.11 8.25 41.36 7.64 41.63 7.05 41.94 6.48 42.27 5.94 42.63 5.43 43.02 4.94 43.42 4.48 43.85 4.05 44.3 3.65 44.77 3.28 45.25 2.93 45.75 2.61 46.26 2.32 46.78 2.06 47.31 1.82 47.84 1.61 48.39 1.42 48.94 1.26 49.49 1.12 50.05 1.01 50.61 .91 51.18 .84 51.74 .79 52.31 .76 52.88 .75 53.43 .76 53.99 .79 54.55 .85 55.11 .93 55.67 1.02 56.23 1.15 56.78 1.29 57.32 1.47 57.87 1.66 58.4 1.88 58.93 2.13 59.44 2.4 59.95 2.7 60.44 3.02 60.93 3.38 61.39 3.76 61.84 4.17 62.27 4.6 62.68 5.07 63.07 5.56 63.43 6.08 63.77 6.62 64.08 7.19 64.36 7.79 64.61 8.4 64.83 9.05 65.02 9.71 65.17 10.39 65.29 11.1 65.38 11.82 65.43 12.56 65.45 13.29 65.45 92.83 65.43 93.59 65.38 94.36 65.29 95.11 65.17 95.83 65.02 96.54 64.84 97.21 64.62 97.87 64.37 98.51 64.09 99.11 63.78 99.7 63.44 100.25 63.08 100.78 62.69 101.28 62.28 101.75 61.85 102.19 61.39 102.61 60.92 102.99 60.44 103.34 59.94 103.67 59.43 103.96 58.91 104.23 58.38 104.47 57.84 104.69 57.3 104.88 56.76 105.05 56.2 105.19 55.65 105.3 55.1 105.4 54.54 105.47 53.98 105.52 53.43 105.55 52.88 105.56 52.32 105.55 51.77 105.52 51.21 105.47 50.66 105.4 50.1 105.3 49.55 105.19 49 105.05 48.45 104.88 47.91 104.69 47.37 104.47 46.84 104.23 46.32 103.96 45.81 103.67 45.31 103.34 44.83 102.99 44.36 102.61 43.91 102.19 43.47 101.75 43.06 101.28 42.67 100.78 42.31 100.25 41.97 99.7 41.66 99.11 41.38 98.51 41.13 97.87 40.91 97.21 40.73 96.54 40.58 95.83 40.46 95.11 40.37 94.36 40.32 93.59 40.3 92.83 40.3 65.64 25.33 65.64 25.33 92.83 25.32 93.59 25.27 94.35 25.18 95.1 25.07 95.82 24.92 96.52 24.75 97.19 24.54 97.85 24.29 98.48 24.02 99.08 23.73 99.66 23.4 100.22 23.04 100.75 22.67 101.25 22.26 101.72 21.84 102.17 21.4 102.58 20.94 102.97 20.46 103.33 19.97 103.65 19.46 103.95 18.95 104.22 18.42 104.47 17.89 104.69 17.36 104.88 16.81 105.04 16.27 105.19 15.71 105.3 15.16 105.4 14.61 105.47 14.05 105.52 13.5 105.55 12.95 105.56 12.38 105.55 11.81 105.52 11.24 105.47 10.67 105.4 10.1 105.31 9.54 105.19 8.97 105.05 8.41 104.89 7.85 104.7 7.3 104.49 6.76 104.25 6.23 103.98 5.7 103.69 5.19 103.37 4.69 103.02 4.21 102.63 3.74 102.22 3.29 101.79 2.87 101.31 2.46 100.82 2.09 100.29 1.74 99.73 1.41 99.15 1.12 98.54 .86 97.9 .64 97.24 .44 96.56 .28 95.85 .16 95.12 .07 94.37 .02 93.6 0 92.83 0 13.1 0 13.1"></polygon>
      <path class="cls-3" d="M2.64,13.13C2.64,6.2,7.89,3.39,12.95,3.39s9.94,3,9.94,9.56v30.18h20.06V13.13c0-6.94,4.87-9.75,9.94-9.75s9.93,3,9.93,9.94v79.48c0,7.31-5.06,10.12-9.93,10.12s-9.94-2.81-9.94-10.12v-29.8h-20.25v29.8c0,7.31-4.87,10.12-9.75,10.12s-10.31-2.81-10.31-10.12V13.13h0Z"></path>
      <path class="cls-2" d="M343.79,32.4l.06-1.73.14-1.72.22-1.68.3-1.65.38-1.61.45-1.58.52-1.54.59-1.5.66-1.45.73-1.41.79-1.36.85-1.32.91-1.26.97-1.21,1.03-1.16,1.08-1.11,1.13-1.05,1.18-.99,1.23-.94,1.28-.87,1.32-.81,1.36-.75,1.4-.68,1.44-.62,1.48-.55,1.51-.48,1.54-.41,1.57-.34,1.6-.27,1.62-.19,1.64-.12,1.66-.04,1.65.04,1.63.12,1.61.19,1.59.27,1.56.34,1.53.41,1.5.48,1.47.55,1.44.62,1.4.68,1.37.75,1.33.81,1.28.87,1.24.94,1.19.99,1.14,1.05,1.09,1.11,1.03,1.16.97,1.22.92,1.27.85,1.32.79,1.37.72,1.41.66,1.46.58,1.5.51,1.54.43,1.58.36,1.62.28,1.65.2,1.69.11,1.72.02,1.7.19,40.54-.06,2.22-.18,2.16-.29,2.08-.4,2-.51,1.92-.6,1.83-.7,1.75-.78,1.67-.87,1.58-.94,1.5-1.01,1.42-1.07,1.34-1.12,1.26-1.18,1.18-1.21,1.1-1.25,1.02-1.29.95-1.31.87-1.33.8-1.34.73-1.35.66-1.36.6-1.35.54-1.35.47-1.33.41-1.32.35-1.3.29-1.27.24-1.24.19-1.21.13-1.17.08-1.13.03-1.08-.03-1.12-.08-1.17-.13-1.2-.18-1.23-.24-1.26-.29-1.28-.35-1.3-.4-1.31-.46-1.32-.53-1.33-.59-1.33-.66-1.32-.72-1.31-.79-1.29-.86-1.27-.93-1.24-1.01-1.21-1.08-1.17-1.16-1.12-1.24-1.07-1.32-1.01-1.4-.94-1.48-.87-1.56-.8-1.64-.71-1.73-.62-1.81-.53-1.89-.43-1.98-.32-2.06-.21-2.14-.1-2.21v-40.97h0ZM368.94,32.48v41.05s.04.57.04.57l.05.54.07.52.08.49.1.46.12.44.13.41.14.38.15.36.17.34.18.31.19.29.2.27.21.25.22.24.23.22.24.2.25.19.26.17.27.16.28.15.3.13.31.12.33.11.34.09.36.08.37.06.39.04.4.03h.42s.48,0,.48,0h.51s.45-.04.45-.04l.43-.04.42-.06.4-.07.38-.09.36-.11.35-.12.33-.13.31-.15.3-.16.28-.17.27-.18.25-.2.24-.21.23-.22.22-.24.21-.26.2-.28.19-.29.17-.31.16-.33.15-.35.14-.37.12-.4.11-.42.1-.45.08-.47.06-.49.05-.52.03-.54v-.59s0-40.43,0-40.43l-.02-.6-.04-.53-.07-.49-.09-.46-.11-.42-.12-.4-.14-.37-.16-.34-.17-.32-.19-.3-.2-.28-.21-.26-.23-.24-.24-.23-.25-.21-.27-.2-.28-.19-.29-.18-.3-.16-.31-.15-.32-.14-.33-.12-.33-.11-.34-.1-.34-.08-.34-.07-.34-.06-.34-.05-.33-.04-.33-.03-.32-.02h-.3s-.26,0-.26,0l-.27.02-.29.03-.29.04-.3.05-.31.06-.31.07-.31.09-.31.1-.31.11-.3.13-.3.14-.29.15-.28.17-.28.18-.26.19-.25.2-.24.22-.23.23-.22.25-.21.26-.19.28-.18.3-.17.32-.15.34-.14.36-.12.39-.1.42-.09.45-.06.48-.04.52-.02.59h0Z"></path>
      <path class="cls-3" d="M346.43,32.44c.19-17.43,13.5-29.81,29.99-29.81s29.99,12.37,29.8,29.81l.19,40.49c0,22.87-19.68,30.74-30.18,30.74-9.94,0-29.43-7.69-29.81-30.37v-40.86h0ZM366.3,32.44c0-7.5,6-9.75,9.75-9.75,4.12,0,10.31,2.06,10.31,9.75v40.49c0,7.12-3.94,10.87-10.12,10.87-5.81.19-9.94-3.37-9.94-10.87v-40.49h0Z"></path>
      <path class="cls-2" d="M216.69,102.93l-1.03.73-1.09.64-1.16.54-1.21.43-1.26.32-1.31.19-1.34.06-1.36-.08-1.37-.23-1.37-.38-1.36-.54-1.34-.7-1.31-.86-1.27-1.02-1.22-1.18-1.17-1.34-1.07-1.46-18.27-26.59v21.34l-.02.76-.06.77-.09.75-.12.73-.16.71-.19.68-.23.66-.26.63-.29.61-.32.58-.34.55-.37.53-.4.5-.42.47-.44.44-.46.41-.47.38-.49.35-.5.32-.51.29-.52.27-.53.24-.53.22-.54.19-.54.17-.54.14-.55.12-.55.09-.55.07-.55.05-.54.03h-.54s-.59,0-.59,0l-.58-.03-.58-.05-.58-.08-.58-.1-.57-.12-.57-.15-.56-.17-.55-.2-.54-.23-.53-.25-.52-.28-.51-.31-.5-.34-.48-.36-.46-.39-.44-.42-.42-.45-.4-.48-.38-.5-.35-.53-.32-.55-.29-.58-.26-.61-.23-.62-.2-.65-.17-.67-.14-.69-.11-.71-.08-.73-.05-.75v-.74s-.01-79.72-.01-79.72v-.72s.06-.73.06-.73l.08-.71.11-.7.14-.68.17-.66.2-.64.23-.62.26-.6.29-.58.31-.55.34-.53.37-.5.39-.48.41-.45.44-.43.46-.4.48-.37.49-.34.51-.31.52-.29.53-.26.55-.23.56-.21.57-.18.57-.15.58-.13.59-.1.59-.08.6-.06.6-.03h.58s21.24-.01,21.24-.01l1.79.04,1.78.13,1.75.22,1.71.3,1.67.38,1.63.46,1.58.54,1.54.61,1.49.68,1.44.74,1.39.81,1.34.87,1.29.93,1.24.98,1.18,1.03,1.12,1.08,1.06,1.13,1.01,1.17.95,1.21.88,1.25.82,1.28.76,1.32.69,1.34.62,1.37.56,1.4.49,1.42.42,1.44.35,1.45.27,1.47.2,1.48.12,1.49.04,1.49-.06,2.31-.16,2.2-.26,2.1-.36,2-.45,1.9-.53,1.8-.6,1.71-.67,1.61-.73,1.52-.79,1.43-.83,1.34-.87,1.25-.9,1.16-.92,1.08-.93.99-.94.91-.94.84-.93.76-.91.7-.89.63-.86.56-.82.5-.78.44-.66.35,17.07,23.32.79,1.19.67,1.3.51,1.32.35,1.34.19,1.34.04,1.33-.11,1.3-.24,1.27-.37,1.22-.49,1.17-.6,1.11-.69,1.05-.79.98-.87.9-.95.82h0ZM177.17,40.3h8.73l.88-.05.73-.12.66-.19.6-.25.55-.31.5-.36.46-.42.42-.47.38-.52.34-.57.29-.62.25-.66.19-.69.14-.71.09-.73.03-.74-.03-.74-.08-.73-.13-.71-.19-.69-.24-.65-.29-.61-.33-.57-.38-.52-.42-.47-.46-.41-.5-.36-.55-.31-.6-.25-.67-.19-.74-.12-.89-.05h-8.73v14.78h0Z"></path>
      <path class="cls-3" d="M198.15,60.94l18.93,25.87c8.06,10.87-9.18,24.93-19.49,9.75l-23.06-33.55v29.8c0,7.31-5.25,10.12-9.93,10.12-5.25,0-9.94-3-9.94-10.12V13.13c0-6.94,4.5-10.12,9.94-10.12h21.18c18.18,0,30.56,14.44,30.56,28.87,0,23.81-18.37,28.87-18.18,29.05h0ZM174.53,42.94h11.44c12,0,12.19-20.06,0-20.06h-11.44v20.06h0Z"></path>
      <polygon class="cls-2" points="227.76 92.83 227.76 13.11 227.77 12.37 227.83 11.63 227.91 10.9 228.03 10.2 228.19 9.51 228.38 8.85 228.6 8.2 228.85 7.58 229.13 6.98 229.44 6.4 229.78 5.85 230.14 5.33 230.53 4.83 230.94 4.36 231.38 3.92 231.83 3.5 232.31 3.11 232.8 2.76 233.3 2.43 233.82 2.12 234.35 1.85 234.89 1.6 235.44 1.38 235.99 1.19 236.56 1.02 237.13 .88 237.7 .76 238.28 .67 238.86 .61 239.45 .57 240.03 .55 240.61 .56 241.19 .6 241.76 .65 242.33 .72 242.9 .82 243.46 .94 244.03 1.07 244.58 1.23 245.14 1.42 245.68 1.62 246.22 1.84 246.75 2.09 247.27 2.37 247.79 2.66 248.29 2.98 248.77 3.32 249.24 3.69 249.7 4.09 250.14 4.5 250.56 4.94 250.95 5.41 251.33 5.9 251.68 6.42 252 6.96 252.3 7.53 252.57 8.12 252.8 8.72 253 9.35 253.17 10 253.3 10.67 253.39 11.35 253.45 12.05 253.47 12.73 253.47 92.84 253.45 93.58 253.39 94.35 253.3 95.09 253.18 95.8 253.02 96.5 252.82 97.18 252.6 97.83 252.34 98.46 252.05 99.07 251.73 99.65 251.38 100.2 251 100.73 250.6 101.23 250.18 101.7 249.74 102.14 249.27 102.55 248.79 102.94 248.3 103.29 247.79 103.62 247.26 103.92 246.73 104.19 246.19 104.44 245.64 104.66 245.08 104.85 244.52 105.02 243.95 105.17 243.38 105.29 242.81 105.39 242.24 105.47 241.66 105.52 241.09 105.55 240.52 105.56 239.95 105.55 239.37 105.52 238.8 105.47 238.23 105.39 237.66 105.29 237.09 105.17 236.53 105.02 235.97 104.85 235.42 104.65 234.88 104.43 234.34 104.18 233.81 103.91 233.3 103.61 232.79 103.28 232.31 102.92 231.83 102.53 231.38 102.12 230.94 101.67 230.53 101.2 230.14 100.7 229.77 100.17 229.43 99.62 229.12 99.04 228.84 98.44 228.59 97.81 228.37 97.16 228.19 96.48 228.03 95.79 227.91 95.07 227.83 94.33 227.77 93.58 227.76 92.83 227.76 92.83"></polygon>
      <path class="cls-3" d="M230.39,92.8V13.13c0-6.94,5.06-10.12,10.12-9.93,5.06.19,10.31,3.37,10.31,9.56v80.04c0,7.12-5.25,10.12-10.31,10.12s-10.12-3-10.12-10.12h0Z"></path>
      <path class="cls-2" d="M266.66,8.94l.25-.6.28-.58.31-.55.34-.53.37-.5.39-.48.41-.45.43-.42.45-.4.47-.37.48-.34.49-.32.51-.29.51-.27.53-.24.53-.22.54-.19.54-.17.55-.14.55-.12.56-.1.56-.08.56-.05.56-.03h.53s22.37-.01,22.37-.01l2.89.08,2.82.28,2.68.48,2.55.66,2.41.84,2.28,1.01,2.13,1.16,1.99,1.3,1.85,1.44,1.7,1.56,1.55,1.67,1.41,1.76,1.26,1.85,1.11,1.92.97,1.99.83,2.03.69,2.08.55,2.11.41,2.13.28,2.15.14,2.15v2.14s-.12,2.13-.12,2.13l-.26,2.11-.4,2.07-.53,2.03-.67,1.98-.81,1.92-.94,1.85-1.08,1.76-.78,1.07.6.53.62.57.6.57.58.58.56.58.54.6.52.6.49.62.47.63.45.65.43.66.4.68.38.7.35.72.33.74.3.75.28.78.25.79.23.82.2.84.18.86.16.88.13.91.11.93.09.96.07.99.05,1.02.03,1.05v1.07s.02,1.54.02,1.54l-.05,1.56-.11,1.54-.17,1.52-.24,1.5-.29,1.47-.36,1.45-.42,1.41-.48,1.38-.54,1.35-.6,1.32-.67,1.28-.73,1.24-.79,1.19-.86,1.15-.92,1.1-.98,1.05-1.04,1-1.1.94-1.16.89-1.22.83-1.28.76-1.34.7-1.39.63-1.45.57-1.5.5-1.55.43-1.61.36-1.66.28-1.71.21-1.76.13-1.79.06h-29.47s-.56-.04-.56-.04l-.56-.05-.56-.07-.56-.09-.56-.11-.55-.13-.55-.15-.54-.18-.54-.2-.53-.23-.52-.25-.51-.28-.5-.31-.48-.33-.47-.37-.45-.39-.43-.42-.41-.45-.39-.48-.36-.51-.34-.54-.31-.56-.28-.59-.25-.61-.22-.63-.18-.65-.15-.68-.12-.7-.08-.72-.05-.74v-.73s-.01-78.79-.01-78.79l.02-.7.05-.72.09-.7.12-.68.16-.66.19-.64.22-.62h0ZM290.96,40.3h6.87l1.21-.05,1.05-.14.95-.22.86-.28.77-.34.69-.4.61-.44.54-.49.47-.53.41-.56.34-.6.28-.62.22-.65.15-.67.09-.68.02-.69-.04-.69-.1-.69-.17-.67-.23-.66-.29-.63-.36-.6-.42-.57-.48-.53-.54-.49-.61-.45-.68-.4-.76-.34-.84-.28-.93-.21-1.02-.14-1.17-.05h-6.87v14.78h0ZM290.96,80.23h12.66l.8-.04.66-.11.6-.18.55-.24.51-.29.47-.35.44-.41.41-.46.37-.51.33-.57.29-.61.24-.65.19-.68.14-.71.09-.72.04-.73-.02-.73-.07-.72-.12-.7-.18-.68-.23-.64-.27-.6-.32-.56-.36-.51-.4-.46-.45-.41-.49-.36-.54-.31-.6-.25-.67-.2-.75-.13-.87-.06h-12.46v14.6h0Z"></path>
      <path class="cls-3" d="M268.45,13.7c0-6.56,5.06-9.56,9.93-9.56h22.31c30.18-.19,36.74,33.18,23.24,47.43,7.31,5.81,10.5,10.5,10.5,21.74.37,15.93-8.81,28.49-27.18,28.68h-28.87c-5.06,0-9.93-2.62-9.93-9.56V13.7h0ZM288.32,42.94h9.56c15.18,0,14.81-20.06,0-20.06h-9.56v20.06h0ZM288.32,82.87h15.37c11.25,0,12-19.68-.19-19.87h-15.18v19.87h0Z"></path>
      <path class="cls-2" d="M103.84,62.61h7l-3.46-11.86-3.55,11.86h0ZM97.36,87.94l-1.86,5.86-.37,1.11-.38,1.05-.39.99-.39.92-.4.86-.42.8-.43.74-.44.69-.46.64-.48.59-.5.54-.52.49-.54.45-.55.39-.57.34-.58.29-.58.24-.58.19-.58.15-.57.11-.55.08-.54.05-.53.03-.51.02h-.99s-.48-.02-.48-.02h-.46s-.45-.02-.45-.02h-.44s-.43,0-.43,0h-.65s-.64-.06-.64-.06l-.52-.09-.52-.12-.52-.15-.51-.18-.51-.21-.51-.24-.5-.26-.49-.29-.49-.32-.47-.35-.46-.38-.45-.41-.43-.44-.41-.47-.39-.5-.37-.53-.34-.56-.31-.59-.28-.62-.25-.64-.22-.67-.18-.69-.14-.72-.11-.74-.06-.76-.02-.79.02-.8.06-.82.11-.84.15-.86.2-.89L92.34,12.39l.2-.67.23-.68.25-.66.27-.64.29-.62.32-.6.34-.58.36-.57.38-.55.39-.53.41-.5.43-.49.45-.46.47-.44.48-.42.5-.4.52-.37.53-.35.55-.33.56-.3.57-.28.58-.26.59-.23.6-.21.61-.19.62-.17.63-.14.64-.12.64-.1.65-.08.65-.05.75-.03.73.03.64.05.63.07.63.09.62.12.62.14.61.16.6.18.59.2.58.23.57.25.56.27.55.3.54.32.53.34.52.37.5.39.49.41.47.44.45.46.44.48.42.5.4.52.38.55.37.57.34.59.33.61.31.63.29.65.27.67.25.69.23.69,22.68,76.11.27.84.24.91.19.9.13.88.08.87.03.85-.02.83-.07.81-.12.79-.16.77-.21.74-.25.72-.29.69-.33.66-.37.63-.4.6-.43.56-.46.53-.49.5-.51.46-.53.43-.55.39-.56.36-.58.32-.6.29-.61.25-.62.21-.63.18-.63.14-.64.1-.64.06-.55.02-.43.02-.45.02-.46.02h-.48s-.49.02-.49.02h-.5s-.51-.02-.51-.02l-.52-.03-.53-.05-.55-.07-.55-.1-.56-.12-.57-.15-.57-.19-.57-.23-.57-.27-.57-.31-.56-.36-.55-.4-.53-.45-.52-.49-.5-.53-.48-.58-.46-.62-.44-.67-.43-.71-.41-.76-.39-.81-.37-.86-.36-.92-.34-.97-.32-1.01-1.88-6.21h-20.86Z"></path>
      <path class="cls-3" d="M100.3,65.25l7.12-23.81,6.94,23.81h-14.06ZM95.43,85.3l-2.44,7.69c-3.75,11.81-7.87,9.75-13.12,9.94-3.94-.38-9.19-4.5-7.12-12.75L94.87,13.13c1.87-6.56,6.75-9.93,12.93-10.12,6,.19,10.87,3.37,12.93,10.12l22.68,76.11c3,8.62-2.81,13.87-7.87,13.87-4.69.19-9.75.75-12.93-9.75l-2.44-8.06h-24.74Z"></path>
      <path class="cls-1" d="M105.25,6.7c1.26-.2,2.18,1.36.8,2.14-1.97.84-2.88,1.61-4.28,3.33-1.12.93-2.69-.33-1.81-1.68,1.13-1.86,3.08-3.5,5.29-3.8h0Z"></path>
      <path class="cls-1" d="M50.13,6.33c1.17-.46,2.38.84,1.22,1.88-1.71,1.23-2.42,2.16-3.39,4.11-.87,1.13-2.65.25-2.09-1.22.69-2.03,2.21-4.02,4.26-4.77h0Z"></path>
      <path class="cls-1" d="M9.75,6.66c1.17-.46,2.38.84,1.22,1.88-1.71,1.23-2.42,2.16-3.39,4.11-.87,1.13-2.65.25-2.09-1.22.69-2.03,2.21-4.02,4.26-4.77h0Z"></path>
      <path class="cls-1" d="M161.96,5.84c1.17-.46,2.38.84,1.22,1.88-1.71,1.23-2.42,2.16-3.39,4.11-.87,1.13-2.65.25-2.09-1.22.69-2.03,2.21-4.02,4.26-4.77h0Z"></path>
      <path class="cls-1" d="M237.66,6.33c1.17-.46,2.38.84,1.22,1.88-1.71,1.23-2.42,2.16-3.39,4.11-.87,1.13-2.65.25-2.09-1.22.69-2.03,2.21-4.02,4.26-4.77h0Z"></path>
      <path class="cls-1" d="M275.13,6.83c1.17-.46,2.38.84,1.22,1.88-1.71,1.23-2.42,2.16-3.39,4.11-.87,1.13-2.65.25-2.09-1.22.69-2.03,2.21-4.02,4.26-4.77h0Z"></path>
      <path class="cls-1" d="M361.28,9.23c1.35-.43,2.35,1.06.88,2.11-2.1,1.22-3.06,2.17-4.52,4.23-1.18,1.16-2.87.11-1.95-1.45,1.18-2.14,3.24-4.2,5.6-4.88h0Z"></path>
    </g>
  </g>
</svg>
