<?xml version="1.0" encoding="UTF-8"?>
<svg xmlns="http://www.w3.org/2000/svg" xmlns:xlink="http://www.w3.org/1999/xlink" version="1.1" id="layer" x="0px" y="0px" viewBox="-153 -46 652 652" style="enable-background:new -153 -46 652 652;" xml:space="preserve">
<style type="text/css">
	.st0{fill:#71B239;}
	.st1{fill:#0F4291;}
	.st2{fill:#3E9DD8;}
	.st3{clip-path:url(#SVGID_2_);fill:url(#SVGID_3_);}
	.st4{clip-path:url(#SVGID_5_);fill:url(#SVGID_6_);}
</style>
<path class="st0" d="M35.3,292h4.3v20.4h-4.3V292z M45.2,312.3v-20.2h5l4,7.4c1.2,2.3,2.2,4.6,3.1,7l0,0c-0.3-2.7-0.3-5.5-0.3-8.5  v-6h4v20.3h-4.6l-4.2-7.8c-1.3-2.3-2.4-4.7-3.3-7.2l0,0c0,2.7,0,5.6,0,8.9v6.1L45.2,312.3z M66.7,307.6c1.5,0.8,3.1,1.2,4.8,1.3  c2,0,3-0.8,3-2.2c0-1.4-0.9-2-3.2-2.8c-3.2-1.2-5.2-3-5.2-6c0.1-3.5,3.1-6.3,6.6-6.2c0.2,0,0.4,0,0.7,0.1c1.7-0.1,3.3,0.3,4.8,1.1  l-0.9,3.7c-1.2-0.7-2.6-1-3.9-1c-1.9,0-2.8,0.9-2.8,1.9c0,1,1.1,1.9,3.6,2.9c3.3,1.3,4.9,3.2,4.9,6.1c0,2.8-2.4,6.3-7.6,6.3  c-1.9,0-3.7-0.4-5.4-1.2L66.7,307.6z M87.3,295.8h-5.2V292h14.6v3.9h-5.2v16.5h-4.3V295.8z M103.3,307.1l-1.3,5.2h-4.2l5.5-20.2h5.7  l5.9,20.3h-4.7l-1.5-5.2L103.3,307.1z M108.2,303.7l-1.2-4.2c-0.3-1.2-0.7-2.8-0.9-3.9l0,0c-0.3,1.2-0.6,2.8-0.8,3.9l-1.1,4.2H108.2  z M119.3,292h4.3v16.5h7.6v3.9h-11.8V292z M135.6,292h4.3v16.5h7.6v3.9h-11.8V292z M156.5,307.1l-1.4,5.2h-4.2l5.6-20.2h5.6  l5.9,20.3h-4.7l-1.3-5.3H156.5z M161.3,303.7l-1.2-4.2c-0.3-1.2-0.7-2.8-1-3.9l0,0c-0.3,1.2-0.6,2.8-0.9,3.9l-1.1,4.2H161.3z   M173.8,295.8h-5.1V292h14.6v3.9h-5.2v16.5h-4.3V295.8z M187.5,292h4.3v20.4h-4.3V292z M214.7,301.9c0,6.7-3.7,10.7-9.3,10.7  c-5.1-0.1-9.1-4.4-9-9.4c0-0.3,0-0.6,0.1-0.9c-0.6-5.3,3.2-10,8.5-10.6c0.2,0,0.5,0,0.7-0.1c5.1,0.1,9.2,4.3,9.1,9.5  C214.8,301.3,214.7,301.6,214.7,301.9 M201,302.2c0,4,1.7,6.8,4.6,6.8s4.6-3,4.6-6.9c0-3.9-1.6-6.9-4.6-6.9  C202.6,295.2,201,298.2,201,302.2 M219.4,312.3v-20.2h5l3.9,7.4c1.2,2.3,2.2,4.6,3.1,7l0,0c-0.3-2.7-0.3-5.5-0.3-8.5v-6h3.9v20.3  h-4.4l-4.2-7.8c-1.3-2.3-2.4-4.7-3.3-7.2l0,0c0,2.7,0,5.6,0,8.9v6.1L219.4,312.3z M247.3,302.9h7.4v3h-7.4V302.9z M283,304.5  c0-2.4,0-5.4,0-8.5l0,0c-0.6,2.6-1.4,5.5-2.1,7.9l-2.3,8h-3.3l-2-7.9c-0.6-2.4-1.2-5.3-1.7-8l0,0c0,2.8-0.2,5.9-0.3,8.5l-0.4,7.7h-4  l1.1-20.1h5.7l1.9,6.8c0.6,2.4,1.2,4.9,1.6,7.3l0,0c0.5-2.4,1.1-5,1.8-7.3l1.7-6.7h5.7l1,20.3H283L283,304.5z M297,307.1l-1.4,5.2  h-4.2l5.8-20.3h5.6l5.9,20.3h-4.7l-1.5-5.2H297z M301.8,303.7l-1.2-4.2c-0.3-1.2-0.7-2.8-1-3.9l0,0c-0.3,1.2-0.6,2.8-0.9,3.9  l-1.1,4.2H301.8z M312.9,292h4.3v20.4h-4.3V292z M322.9,312.3v-20.2h5l3.9,7.4c1.2,2.3,2.2,4.6,3.1,7l0,0c-0.3-2.7-0.3-5.5-0.3-8.5  v-6h4v20.3h-4.5l-4.2-7.8c-1.1-2.2-2.4-4.8-3.3-7.2l0,0c0,2.7,0,5.6,0,8.9v6.1L322.9,312.3z M347.8,295.8h-5.1V292h14.6v3.9h-5.2  v16.5h-4.3V295.8z M372.8,303.7h-7v4.8h7.8v3.8h-12.1V292h11.7v3.8h-7.4v4.2h7V303.7z M378.4,312.3v-20.2h5l3.9,7.4  c1.2,2.3,2.2,4.6,3.1,7l0,0c-0.3-2.7-0.3-5.5-0.3-8.5v-6h4v20.3h-4.5l-4.2-7.8c-1.1-2.2-2.4-4.8-3.3-7.2l0,0c0,2.7,0,5.6,0,8.9v6.1  L378.4,312.3z M404.2,307.1l-1.4,5.2h-4.2l5.8-20.3h5.6l5.9,20.3h-4.7l-1.5-5.2H404.2z M409,303.7l-1.2-4.2c-0.3-1.2-0.7-2.8-1-3.9  l0,0c-0.3,1.2-0.6,2.8-0.9,3.9l-1.1,4.2H409z M420.2,312.3v-20.2h5l3.9,7.4c1.2,2.3,2.2,4.6,3.1,7l0,0c-0.3-2.7-0.3-5.5-0.3-8.5v-6  h3.9v20.3h-4.5l-4.2-7.8c-1.3-2.3-2.4-4.7-3.3-7.2l0,0c0,2.7,0,5.6,0,8.9v6.1L420.2,312.3z M455.4,311.8c-1.5,0.6-3.2,0.9-4.9,0.8  c-5.2,0.3-9.6-3.5-10-8.7c0-0.5,0-1,0-1.5c-0.4-5.5,3.6-10.3,9.1-10.7c0.4,0,0.8,0,1.3,0c1.6-0.1,3.2,0.2,4.7,0.9l-0.9,3.6  c-1.1-0.5-2.4-0.7-3.6-0.7c-3.3-0.1-6,2.5-6.1,5.8c0,0.3,0,0.6,0.1,0.9c-0.5,3.2,1.6,6.2,4.8,6.8c0.4,0.1,0.8,0.1,1.2,0.1  c1.2,0,2.5-0.2,3.6-0.7L455.4,311.8z M471.4,303.7h-7v4.8h7.8v3.8h-12.1V292h11.7v3.8h-7.4v4.2h7V303.7z"></path>
<path class="st1" d="M41,260.4v-9.9c0.8-0.2,1.6-0.3,2.5-0.3c2.3-0.3,4.4,1.3,4.8,3.6c0.1,0.4,0.1,0.9,0,1.3  c0.3,2.7-1.7,5.1-4.4,5.4c-0.3,0-0.6,0-0.8,0c-0.7,0.1-1.3,0.1-2,0 M35.2,245.2v33.1h6v-12.1c0.7,0.2,1.3,0.2,2,0.2  c3.3,0.2,6.5-1.1,8.7-3.6c1.7-2.3,2.6-5.1,2.5-8c0.1-2.9-0.9-5.7-2.9-7.7c-2.2-2-5.2-2.9-8.2-2.7C40.6,244.4,37.9,244.7,35.2,245.2   M64,250.4c0.9-0.2,1.8-0.3,2.8-0.2c2.3,0,4.2,1.9,4.2,4.2c0,0.1,0,0.3,0,0.4c0.2,2.5-1.6,4.6-4.1,4.8c-0.2,0-0.5,0-0.7,0h-2.4  L64,250.4z M58,245.2v33.1h6v-13.2h1.8c2.5,0,3.7,1.1,4.2,5.4c0.4,2.7,1,5.3,1.9,7.8H78c-0.5-1.3-1.3-5.7-2.2-9.5  c-0.2-2.5-1.4-4.8-3.4-6.3l0,0c3.1-1.7,4.9-5,4.7-8.5c0.2-2.6-0.7-5.2-2.5-7.1c-2.4-2-5.4-2.9-8.5-2.7c-2.7,0-5.4,0.2-8,0.7   M86.5,261.6c0-6.5,2.4-11.4,6.5-11.4s6.4,5.2,6.4,11.2c0,6.1-2.3,11.4-6.4,11.4S86.5,268.2,86.5,261.6 M80.2,261.6  c0,9.6,4.7,17.1,12.7,17.1S106,272.1,106,261c0-9.3-4.5-16.9-12.7-16.9s-13,7.5-13,17.6 M109.9,244.7v33.6h6v-13.5h9.6v-6.2h-9.6  v-7.7h10.3v-6.2H109.9z M130.8,244.7v33.6h17v-6.2h-11v-8h9.9v-6.2h-9.9v-7h10.5v-6.2H130.8z M151.2,254.3c0.1,4.5,3,8.5,7.4,9.9  c3.2,1.4,4.5,2.6,4.5,4.7s-1.5,3.6-4.2,3.6c-2.4-0.1-4.7-0.8-6.7-2.1l-1.2,6.2c2.3,1.4,4.9,2.1,7.6,2.1c5.4,0.5,10.2-3.4,10.7-8.8  c0.1-0.5,0.1-1.1,0-1.6c0.2-4.6-2.7-8.7-7.1-10.1c-3.5-1.6-5-2.6-5-4.7c0-2.1,1.3-3.3,3.9-3.3c2,0,3.9,0.6,5.5,1.6l1.4-6.1  c-2.1-1.2-4.4-1.8-6.8-1.7c-5.3-0.3-9.8,3.7-10.1,9c0,0.3,0,0.7,0,1 M172.6,254.3c0.1,4.5,3,8.5,7.4,9.9c3.2,1.4,4.5,2.6,4.5,4.7  s-1.4,3.6-4.2,3.6c-2.4-0.1-4.7-0.8-6.7-2.1l-1.2,6.2c2.3,1.4,4.9,2.1,7.6,2.1c5.4,0.5,10.2-3.4,10.8-8.9c0-0.5,0.1-1,0-1.5  c0.2-4.5-2.6-8.6-6.9-10.1c-3.5-1.6-5-2.6-5-4.7c0-2.1,1.3-3.3,3.9-3.3c2,0,3.9,0.6,5.5,1.6l1.4-6.1c-2.1-1.2-4.4-1.8-6.8-1.7  c-5.3-0.3-9.8,3.7-10.1,9C172.6,253.5,172.6,253.8,172.6,254.3 M194.8,244.7h6.1v33.5h-6.1V244.7z M211.2,261.6  c0-6.5,2.4-11.4,6.5-11.4s6.4,5.2,6.4,11.2c0,6.1-2.4,11.4-6.4,11.4S211.2,268.2,211.2,261.6 M204.8,261.6c0,9.6,4.7,17.1,12.7,17.1  s13.2-6.6,13.2-17.7c0-9.3-4.5-16.9-12.7-16.9s-13,7.5-13,17.6 M251,244.7v9.8c0,5.1,0,9.6,0.5,14l0,0c-1.2-3.9-2.6-7.7-4.2-11.5  l-5.7-12.3h-7.1v33.6h5.6v-10.1c0-5.5,0-10.2-0.3-14.7l0,0c1.3,3.9,3,8.5,4.6,11.8l5.7,12.9h6.3v-33.6H251z M278.4,244.7v9.8  c0,5.1,0,9.6,0.5,14l0,0c-1.2-3.9-2.6-7.7-4.2-11.5l-5.8-12.3h-7.1v33.6h5.5v-10.1c0-5.5,0-10.2-0.3-14.7l0,0  c1.3,3.9,3,8.5,4.6,11.8l5.7,12.9h6.3v-33.6H278.4z M289.3,244.7v33.6h17v-6.2h-11v-8h9.9v-6.2h-9.9v-7h10.5v-6.2H289.3z   M310.5,244.7v33.6h16.6v-6.4h-10.6v-27.2H310.5z M346.8,272.7c-0.7,0.1-1.4,0.1-2.1,0v-22.1c0.9-0.2,1.8-0.3,2.8-0.3  c5.2,0,8.5,3.7,8.5,10.7C355.9,268.9,352.4,272.7,346.8,272.7L346.8,272.7 M338.8,245.2v32.9c2.3,0.4,4.6,0.5,6.9,0.5  c4.5,0.3,9-1.2,12.4-4.2c3.1-3.8,4.6-8.7,4.2-13.6c0.3-4.7-1.3-9.3-4.5-12.7c-3-2.6-7-3.9-11-3.6c-2.7,0-5.4,0.3-8.1,0.8   M382.1,244.7V264c0,6-1.8,8.8-5,8.8s-4.8-2.9-4.8-8.8v-19.3h-6.1v18.7c0,10.7,3.9,15.4,10.7,15.4c6.8,0,11.1-5,11.1-15.3v-18.8  H382.1z M400.1,261.9c-0.2,4.4,1.2,8.7,3.8,12.2c2.7,3.1,6.7,4.8,10.9,4.5c3.1-0.1,6.1-0.7,8.9-1.9v-17.6h-9.9v5.9h4.2v7.1  c-0.9,0.3-1.9,0.5-2.9,0.4c-5,0-8.5-4-8.5-11c0-6.9,3.9-10.9,8.9-10.9c2.2-0.1,4.3,0.4,6.2,1.4l1.3-6.1c-2.3-1.1-4.8-1.7-7.4-1.6  c-8.8,0-15.2,6.4-15.3,17.5 M437.1,256.9c0.4-1.9,0.8-4.5,1.2-6.5l0,0c0.4,2,0.8,4.5,1.4,6.5l1.7,7.1h-5.9L437.1,256.9z   M434.7,244.7l-8.2,33.6h6.4l1.9-8.5h7.7l2,8.5h6.6l-8.5-33.6H434.7z M454.2,244.7v6.3h11.6v0.2l-12.7,23v4.1h20.7V272h-12.7v-0.2  l12.4-22.7v-4.4H454.2z"></path>
<path class="st2" d="M-4.6,287c-1.2-20.3-6.8-40-16.6-57.8l0,0c-9.8,17.8-15.4,37.6-16.6,57.8c-0.7,13,0.3,26,2.9,38.7  c0.7,3.1,1.5,6.1,2.5,9.1c-0.8-9.3-1.1-18.7-0.8-28.1c0.7-19.8,4.7-39.4,11.9-57.9l0,0c7.2,18.5,11.2,38.1,11.9,57.9  c0,6.5,0,12.4,0,17.6c1-1.1,1.9-2.2,2.8-3.3C-4.6,309.8-4,298.4-4.6,287z"></path>
<path class="st0" d="M-60.6,202.6c-26.5,0-51.1,13.7-65,36.3h9.1c22.7-30.4,65.7-36.6,96.1-13.9S16.2,290.6-6.5,321l0,0  c-0.9,1.1-1.8,2.2-2.8,3.3c-2.3,2.6-4.9,5.1-7.6,7.3c1.4-6.6,2-13.4,1.8-20.1c0-2.8-0.3-5.5-0.6-8.1c-1.2-8.5-3-16.9-5.5-25.1l0,0  c-2.4,8.2-4.3,16.6-5.5,25.1c-0.3,2.6-0.5,5.3-0.6,8.1c0.1,8.5,1,17,2.7,25.4c-31.1,19.3-72,10.8-92.8-19.5h-9.1  c21.4,36.2,68.1,48.2,104.3,26.8C14.3,322.9,26.3,276.2,4.9,240C-8.8,216.8-33.7,202.6-60.6,202.6z"></path>
<g>
	<defs>
		<path id="SVGID_1_" d="M-71.4,245.8c-3.4,1.6-6.4,3.9-8.9,6.7c-2.7,3.2-4.8,6.9-6.1,10.8c-1.6,4.8-2.4,9.8-2.3,14.9    c-0.1,5,0.7,10,2.3,14.7c1.3,4,3.4,7.7,6.1,10.9c4.8,5.7,11.9,9,19.4,9c6.9,0.4,13.7-2,18.8-6.7v-30.6h-20v9.6h9.6v15.3    c-2.3,1.5-5,2.3-7.8,2.1c-2.3,0-4.5-0.6-6.6-1.7c-2.1-1.2-4-2.8-5.4-4.8c-1.6-2.3-2.9-4.8-3.6-7.5c-0.9-3.2-1.4-6.6-1.3-9.9    c0-3.6,0.4-7.1,1.4-10.5c0.8-2.8,2.1-5.4,3.8-7.7c1.5-2,3.5-3.6,5.8-4.6c2.2-1,4.5-1.6,6.9-1.7c2.4,0,4.8,0.4,7.1,1.2    c2.1,0.8,4,1.8,5.8,3l1.9-10.3c-2.1-1.5-4.4-2.6-6.9-3.3c-3.1-0.9-6.3-1.4-9.5-1.4c-3.6,0-7.1,0.8-10.3,2.3"></path>
	</defs>
	<clipPath id="SVGID_2_">
		<use xlink:href="#SVGID_1_" style="overflow:visible;"></use>
	</clipPath>
	
		<linearGradient id="SVGID_3_" gradientUnits="userSpaceOnUse" x1="-114.4795" y1="238.8744" x2="-53.9443" y2="325.3413" gradientTransform="matrix(1 0 0 -1 0 560)">
		<stop offset="0.45" style="stop-color:#0F4291"></stop>
		<stop offset="0.6" style="stop-color:#87A0C8"></stop>
		<stop offset="0.8" style="stop-color:#0F4291"></stop>
	</linearGradient>
	<rect x="-126.3" y="242.9" class="st3" width="84.1" height="70"></rect>
</g>
<path class="st2" d="M-4,287.2c-1.1-20.3-6.8-40-16.6-57.8l0,0c-9.8,17.8-15.4,37.5-16.6,57.8c-0.7,13,0.3,26,2.9,38.8  c0.7,3.1,1.5,6.1,2.5,9.1c-0.9-9.4-1.1-18.9-0.8-28.3c0.7-19.8,4.7-39.3,11.9-57.8l0,0c7.2,18.4,11.2,38,11.9,57.8  c0,6.6,0,12.4,0,17.6c1-1.1,1.9-2.2,2.8-3.3C-4.1,309.9-3.4,298.5-4,287.2z"></path>
<path class="st0" d="M-59.9,202.8c-26.4,0-50.9,13.7-64.7,36.2h9c21.8-31,64.5-38.4,95.5-16.7s38.4,64.5,16.7,95.5  c-0.8,1.1-1.6,2.2-2.4,3.2c-0.9,1.1-1.8,2.3-2.8,3.3c-2.3,2.6-4.9,5.1-7.6,7.3c1.4-6.6,2-13.3,1.8-20.1c0-2.8-0.3-5.5-0.6-8.1  c-1.2-8.5-3-16.9-5.5-25.1l0,0c-2.4,8.2-4.3,16.6-5.5,25.1c-0.3,2.6-0.5,5.3-0.6,8.1c0.1,8.5,1,17,2.7,25.4  c-10.8,6.7-23.3,10.3-36,10.3c-22.6,0-43.8-11.2-56.6-29.8h-9.1c21.3,36.3,67.9,48.5,104.2,27.2c36.3-21.3,48.5-67.9,27.2-104.2  C-7.9,217.1-32.9,202.8-59.9,202.8z"></path>
<g>
	<defs>
		<path id="SVGID_4_" d="M-115.3,254.6h5.9c2,0,3.9,0.9,5.2,2.4c1.7,2,2.5,4.5,2.3,7.1c0.2,2.6-0.7,5.1-2.3,7.1    c-1.3,1.5-3.2,2.3-5.2,2.4h-5.9V254.6z M-126.3,244.8v66.8h10.9v-28.4h7.4c2.2,0,4.4-0.4,6.4-1.3c2.1-0.9,3.9-2.2,5.4-3.8    c1.6-1.8,2.9-3.8,3.8-6.1c1-2.6,1.5-5.3,1.4-8c0.1-2.8-0.4-5.5-1.4-8.1c-0.8-2.2-2-4.3-3.6-6.1c-3.1-3.2-7.3-5.1-11.8-5.1    L-126.3,244.8z"></path>
	</defs>
	<clipPath id="SVGID_5_">
		<use xlink:href="#SVGID_4_" style="overflow:visible;"></use>
	</clipPath>
	
		<linearGradient id="SVGID_6_" gradientUnits="userSpaceOnUse" x1="-114.3154" y1="238.7613" x2="-54.1084" y2="324.7774" gradientTransform="matrix(1 0 0 -1 0 560)">
		<stop offset="0.45" style="stop-color:#0F4291"></stop>
		<stop offset="0.6" style="stop-color:#87A0C8"></stop>
		<stop offset="0.8" style="stop-color:#0F4291"></stop>
	</linearGradient>
	<rect x="-126.3" y="243.6" class="st4" width="84.1" height="69.3"></rect>
</g>
</svg>
