<?xml version="1.0" encoding="UTF-8"?>
<svg xmlns="http://www.w3.org/2000/svg" id="Calque_2" data-name="Calque 2" viewBox="0 0 580 96.46">
  <defs>
    <style>
      .cls-1 {
        fill: #000;
        stroke-width: 0px;
      }
    </style>
  </defs>
  <g id="svg3255">
    <path class="cls-1" d="M580,48.61c0-27.37-24.85-48.61-55.36-48.61s-55.51,20.26-55.51,47.12c0,25.35,20.39,45.65,47.85,48.88v-15.34c-17.97-2.96-31.54-16.38-31.54-32.53,0-18.31,17.46-33.17,38.99-33.17s39,14.86,39,33.17c0,16.02-13.36,29.36-31.12,32.45v15.37c26.36-3.2,47.7-22.75,47.7-47.35M404.09,81.58c-16.94,0-31.37-9.17-36.75-22.02h-17.34c5.74,22.14,28.28,36.9,55.04,36.9,6.21,0,13.37-.61,19.3-2.09,13.41-3.32,28.04-12.02,28.04-25.77v-24.4h-48.47l-.05,15.36h33.02v6.97c0,7.7-11.5,12.16-18.55,13.72-3.79.84-8.66,1.32-12.57,1.32h-1.69M436.92,28.09c-7.35-7.63-18.69-12.51-31.41-12.51-20.29,0-37.06,12.46-39.74,28.63h-16.99c2.22-25.09,27.89-43.59,56.94-43.59,17.28,0,32.8,6.43,43.25,16.78l-12.06,10.69M254.55,2.63h-15.7v91.78h15.44V25.83l63.27,68.58h11.5v-11.16L254.55,2.63M329.06,2.63h-15.44v44.57l15.44,15.5V2.63M193.46,65.96l14.24,28.46h18.56L179.7,2.63h-16.74v.03s23.31,48.67,23.31,48.67h-30.98l8.09-15.86-8.43-17.25-39.25,76.19h17.35l14.68-28.45h45.74M15.57,2.64H0v91.78h15.43V31.32l35.04,56.02,8.93-14.29L15.57,2.64M58.75,45.71l8.89,14.09,17.87-28.48v63.09h15.39V2.64h-15.7l-26.44,43.07"></path>
  </g>
</svg>
