<?xml version="1.0" encoding="UTF-8"?>
<svg xmlns="http://www.w3.org/2000/svg" id="Calque_2" data-name="Calque 2" viewBox="0 0 192.76 192.76">
  <defs>
    <style>
      .cls-1 {
        fill: #fff;
      }

      .cls-1, .cls-2 {
        fill-rule: evenodd;
        stroke-width: 0px;
      }

      .cls-2 {
        fill: #231f20;
      }
    </style>
  </defs>
  <g id="Layer_1" data-name="Layer 1">
    <g>
      <polygon class="cls-1" points="0 0 192.76 0 192.76 192.76 0 192.76 0 0 0 0"></polygon>
      <path class="cls-2" d="M42.74,71.48c-9.88,11.6-19.35,25.99-19.45,36.75-.04,4.05,1.25,7.58,4.35,10.26,4.46,3.85,9.37,5.21,14.26,5.22,7.15,0,14.24-2.87,19.8-5.1,9.36-3.74,112.79-48.66,112.79-48.66,1-.5.81-1.12-.44-.81-.5.13-112.6,30.5-112.6,30.5-2.16.61-4.37.92-6.52.93-8.62.05-16.28-4.73-16.22-14.81.02-3.94,1.23-8.7,4.03-14.29h0Z"></path>
    </g>
  </g>
</svg>
