<?xml version="1.0" encoding="UTF-8"?>
<svg xmlns="http://www.w3.org/2000/svg" id="Calque_2" data-name="Calque 2" viewBox="0 0 378.35 88.29">
  <defs>
    <style>
      .cls-1 {
        fill: #1d1d1b;
        stroke-width: 0px;
      }
    </style>
  </defs>
  <g id="Layer_1" data-name="Layer 1">
    <path class="cls-1" d="M81.44,44.14h0c-.39,18.43-7.78,22.53-7.78,22.53,0,0-3.46,4.18-22.38,4.19h-.03c-18.91,0-22.36-4.19-22.36-4.19,0,0-7.4-4.1-7.79-22.52h0c.39-18.43,7.79-22.54,7.79-22.54,0,0,3.46-4.17,22.4-4.17h0c18.92.01,22.38,4.19,22.38,4.19,0,0,7.39,4.1,7.78,22.52M102.55,44.14h0c-.65-30.89-13.04-37.76-13.04-37.76C89.51,6.38,83,.01,51.3.01h.01c-31.75-.01-38.26,6.37-38.26,6.37,0,0-12.39,6.87-13.04,37.76h0c.65,30.89,13.04,37.76,13.04,37.76,0,0,6.51,6.39,38.26,6.39h-.01c31.7-.02,38.21-6.39,38.21-6.39,0,0,12.4-6.86,13.04-37.75h0"></path>
    <polygon class="cls-1" points="116.83 86.5 137.22 86.5 137.22 30.97 187.2 86.5 207.24 86.5 207.24 1.26 187.2 1.26 187.2 55.63 137.69 1.26 116.83 1.26 116.83 86.5"></polygon>
    <polygon class="cls-1" points="246.6 67.08 246.6 1.34 226.3 1.34 226.3 66.27 226.3 86.56 246.6 86.56 296.85 86.56 296.85 67.08 246.6 67.08"></polygon>
    <polygon class="cls-1" points="328.52 38.44 300.94 1.4 300.67 1.4 277.82 1.4 318.3 58.04 318.3 86.69 338.39 86.69 338.39 58.04 378.1 1.4 355.31 1.4 328.52 38.44"></polygon>
    <path class="cls-1" d="M375.17,69.56c-.37-.35-.53-.5-3.28-.5h-2.66v4.31h2.84c.7,0,2.32.03,2.79-.18.35-.17.79-.62.79-1.98,0-.91-.2-1.43-.46-1.65M375.65,82.16v-4.03c0-2.36,0-2.29-3.79-2.29h-2.64v6.31h-2.73v-15.54h5.44c3.52,0,6.41.15,6.41,4.46,0,1.88-.38,2.99-1.52,3.46,1.73.5,1.52,2.54,1.52,3.82v3.8h-2.69Z"></path>
  </g>
</svg>
